<?xml version="1.0" encoding="iso-8859-1"?>
<!-- Uploaded to: SVG Repo, www.svgrepo.com, Generator: SVG Repo Mixer Tools -->
<svg version="1.1" id="Layer_1" xmlns="http://www.w3.org/2000/svg" xmlns:xlink="http://www.w3.org/1999/xlink" 
	 viewBox="0 0 511.992 511.992" xml:space="preserve">
<rect x="240" y="358.988" width="32" height="77.528"/>
<polygon points="155.904,456.428 166.568,424.428 345.432,424.428 356.096,456.428 "/>
<path d="M37.296,362.62C21.144,362.62,8,349.476,8,333.316V92.868c0-16.16,13.144-29.296,29.296-29.296h437.408
	c16.16,0,29.296,13.144,29.296,29.296v240.456c0,16.16-13.144,29.296-29.296,29.296H37.296z"/>
<path d="M474.704,71.564c11.744,0,21.296,9.552,21.296,21.296v240.456c0,11.744-9.552,21.296-21.296,21.296H37.296
	C25.552,354.612,16,345.06,16,333.316V92.86c0-11.744,9.552-21.296,21.296-21.296H474.704 M474.704,55.564H37.296
	C16.784,55.564,0,72.348,0,92.86v240.456c0,20.512,16.784,37.296,37.296,37.296h437.4c20.512,0,37.296-16.784,37.296-37.296V92.86
	C512,72.348,495.216,55.564,474.704,55.564L474.704,55.564z"/>
<g>
	<polyline style="fill:#FF583E;" points="239.144,156.9 253.496,116.948 346.112,159.972 	"/>
	<circle style="fill:#FF583E;" cx="312.8" cy="305.036" r="28.848"/>
	<circle style="fill:#FF583E;" cx="225.76" cy="305.036" r="28.848"/>
</g>
<g>
	<polygon style="fill:#FFFFFF;" points="204.112,164.58 185.16,108.516 136.112,108.516 136.112,93.54 195.912,93.54 
		218.304,159.788 	"/>
	<path style="fill:#FFFFFF;" d="M364.456,160.004l-33.952,95.256H208.296l-29.656-95.256H364.456 M375.8,152.004H167.768
		l34.64,111.256h133.736L375.8,152.004L375.8,152.004z"/>
</g>
</svg>